<svg xmlns="http://www.w3.org/2000/svg" viewBox="0 0 512 512">
  <defs>
    <linearGradient id="bg" x1="0%" y1="0%" x2="100%" y2="100%">
      <stop offset="0%" stop-color="#B2E8D4"/>
      <stop offset="52%" stop-color="#88D8B8"/>
      <stop offset="100%" stop-color="#6CC4A0"/>
    </linearGradient>
    <linearGradient id="bgGloss" x1="0%" y1="0%" x2="50%" y2="100%">
      <stop offset="0%" stop-color="white" stop-opacity="0.3"/>
      <stop offset="42%" stop-color="white" stop-opacity="0.05"/>
      <stop offset="100%" stop-color="white" stop-opacity="0"/>
    </linearGradient>

    <path id="cloverPath" d="
      M100 33.7 A31.3 31.3 0 0 1 131.3 65 A31.3 31.3 0 0 1 135 68.7
      A31.3 31.3 0 0 1 166.3 100 A31.3 31.3 0 0 1 135 131.3
      A31.3 31.3 0 0 1 131.3 135 A31.3 31.3 0 0 1 100 166.3
      A31.3 31.3 0 0 1 68.7 135 A31.3 31.3 0 0 1 65 131.3
      A31.3 31.3 0 0 1 33.7 100 A31.3 31.3 0 0 1 65 68.7
      A31.3 31.3 0 0 1 68.7 65 A31.3 31.3 0 0 1 100 33.7 Z"/>
    <clipPath id="clover"><use href="#cloverPath"/></clipPath>
    <clipPath id="topLeftHalf">
      <rect x="0" y="0" width="200" height="200" transform="rotate(-45,100,100)"/>
    </clipPath>
    <clipPath id="bottomRightHalf">
      <rect x="0" y="0" width="200" height="200" transform="rotate(135,100,100)"/>
    </clipPath>

    <filter id="softShadow" x="-12%" y="-6%" width="124%" height="124%">
      <feDropShadow dx="0" dy="3" stdDeviation="4" flood-color="#1a3a2a" flood-opacity="0.2"/>
    </filter>
    <filter id="discShadow" x="-25%" y="-15%" width="150%" height="150%">
      <feDropShadow dx="0" dy="2" stdDeviation="3" flood-color="#8a7a20" flood-opacity="0.25"/>
    </filter>
  </defs>

  <rect width="512" height="512" rx="112" fill="url(#bg)"/>
  <rect width="512" height="512" rx="112" fill="url(#bgGloss)"/>

  <g transform="translate(256,256) scale(2.52) translate(-100,-100)" filter="url(#softShadow)">
    <g transform="translate(0,1.8)">
      <use href="#cloverPath" fill="white" opacity="0.35"/>
    </g>
    <use href="#cloverPath" fill="white" opacity="0.78"/>

    <g clip-path="url(#topLeftHalf)">
      <use href="#cloverPath" fill="none" stroke="white" stroke-width="1.2" opacity="1"/>
    </g>
    <g clip-path="url(#bottomRightHalf)">
      <use href="#cloverPath" fill="none" stroke="rgba(0,0,0,0.2)" stroke-width="0.8"/>
    </g>

    <g filter="url(#discShadow)">
      <circle cx="100" cy="101.5" r="26" fill="#E8D040" opacity="0.4"/>
      <circle cx="100" cy="100" r="26" fill="#FBEC5D" opacity="0.9"/>
      <g clip-path="url(#topLeftHalf)">
        <circle cx="100" cy="100" r="25.5" fill="none" stroke="white" stroke-width="1.2" opacity="1"/>
      </g>
      <g clip-path="url(#bottomRightHalf)">
        <circle cx="100" cy="100" r="25.5" fill="none" stroke="rgba(0,0,0,0.18)" stroke-width="0.8"/>
      </g>
    </g>
  </g>
</svg>
