<svg xmlns="http://www.w3.org/2000/svg" viewBox="0 0 512 512">
  <defs>
    <!-- Leaf shade -->
    <radialGradient id="leafShade" cx="35%" cy="30%" r="65%">
      <stop offset="0%" stop-color="white" stop-opacity="0"/>
      <stop offset="60%" stop-color="#e0e0e0" stop-opacity="0.08"/>
      <stop offset="100%" stop-color="#c0c0c0" stop-opacity="0.18"/>
    </radialGradient>
    <!-- Center shade -->
    <radialGradient id="centerShade" cx="38%" cy="35%" r="60%">
      <stop offset="0%" stop-color="white" stop-opacity="0.3"/>
      <stop offset="50%" stop-color="#FBEC5D" stop-opacity="0"/>
      <stop offset="100%" stop-color="#70D4A8" stop-opacity="0.15"/>
    </radialGradient>
    <filter id="shadow" x="-10%" y="-5%" width="120%" height="120%">
      <feDropShadow dx="0" dy="4" stdDeviation="8" flood-color="#2A8A70" flood-opacity="0.3"/>
    </filter>
  </defs>

  <!-- Clover centered, scaled up to fill 512 -->
  <g transform="translate(256,256) scale(2.8) translate(-100,-100)" filter="url(#shadow)">
    <!-- Leaf bases (white) -->
    <ellipse cx="100" cy="62" rx="34" ry="34" fill="white"/>
    <ellipse cx="138" cy="100" rx="34" ry="34" fill="white"/>
    <ellipse cx="100" cy="138" rx="34" ry="34" fill="white"/>
    <ellipse cx="62" cy="100" rx="34" ry="34" fill="white"/>

    <!-- Leaf shading -->
    <ellipse cx="100" cy="62" rx="34" ry="34" fill="url(#leafShade)"/>
    <ellipse cx="138" cy="100" rx="34" ry="34" fill="url(#leafShade)"/>
    <ellipse cx="100" cy="138" rx="34" ry="34" fill="url(#leafShade)"/>
    <ellipse cx="62" cy="100" rx="34" ry="34" fill="url(#leafShade)"/>

    <!-- Leaf highlights -->
    <ellipse cx="100" cy="52" rx="12" ry="9" fill="white" opacity="0.6"/>
    <ellipse cx="62" cy="100" rx="9" ry="12" fill="white" opacity="0.4"/>

    <!-- Center circle -->
    <circle cx="100" cy="100" r="30" fill="#FBEC5D"/>
    <circle cx="100" cy="100" r="30" fill="url(#centerShade)"/>
    <ellipse cx="95" cy="93" rx="8" ry="5" fill="white" opacity="0.4"/>
  </g>
</svg>
