<?xml version="1.0" encoding="UTF-8"?>
<svg id="_레이어_1" data-name="레이어_1" xmlns="http://www.w3.org/2000/svg" version="1.1" viewBox="0 0 100 100">
  <!-- Generator: Adobe Illustrator 30.3.0, SVG Export Plug-In . SVG Version: 2.1.3 Build 182)  -->
  <path d="M39.13,2l1.83,1.16c8.33,4.16,14.41,10.8,18.38,19.17,3.07,6.47,4.87,12.95,4.74,20.48,5.31-3.55,6.79-12.96,7.7-12.76.4.09,1.03.56,1.55.98,12.37,9.97,17.57,25.99,12.46,41.43-4.6,13.89-17.68,24.36-32.58,25.54l-6.36-.12c-12.77-1.17-24.16-8.43-30.26-19.97-8.58-16.22-4.05-35.93,10.46-47.07,4.99-3.83,8.62-9.02,10.46-15.07,1.02-3.38.74-6.85.67-10.36l.1-3.4h.86Z"/>
</svg>