<svg xmlns="http://www.w3.org/2000/svg" viewBox="0 0 512 512">
  <defs>
    <linearGradient id="bg" x1="0.5" y1="0" x2="0.5" y2="0.7">
      <stop offset="0%" stop-color="#a3ffdc"/>
      <stop offset="100%" stop-color="#5cf7e0"/>
    </linearGradient>
  </defs>
  <!-- Background -->
  <rect width="512" height="512" fill="url(#bg)"/>
  <!-- Flower petals (white) -->
  <path fill="#fff" d="M265.06,439.68c-6.27.53-12.39.7-18.28.1-40.57-4.17-72.36-36.02-76.59-76.55-.4-3.88-.54-18.98.77-23.18-4.24,1.28-19.34,1.17-23.2.76-47.55-4.98-81.34-47.06-76.52-94.52,4.12-40.59,36.03-72.36,76.53-76.59,3.86-.4,18.99-.53,23.19.77-1.28-4.22-1.17-19.34-.76-23.2,4.98-47.55,47.06-81.34,94.52-76.52,40.59,4.12,72.35,36.03,76.6,76.52.47,4.44.41,18.99-.7,23.18,4.56-1.34,19.6-1.12,23.12-.75,40.5,4.23,72.41,36.01,76.53,76.59,4.81,47.45-28.98,89.54-76.53,94.51-3.86.4-18.99.53-23.19-.77,1.28,4.28,1.18,19.15.74,23.34-2.95,28.03-19.41,52.9-44.1,66.28-10.04,5.44-20.44,9.04-32.13,10.02Z"/>
  <!-- Center circle (yellow) -->
  <circle fill="#fff064" cx="256" cy="256" r="72.81"/>
</svg>
