<svg xmlns="http://www.w3.org/2000/svg" viewBox="0 0 512 512">
  <defs>
    <linearGradient id="bg" x1="0%" y1="0%" x2="100%" y2="100%">
      <stop offset="0%" stop-color="#B8FFDE"/>
      <stop offset="52%" stop-color="#98FBCB"/>
      <stop offset="100%" stop-color="#78E0B0"/>
    </linearGradient>
    <linearGradient id="gloss" x1="0%" y1="0%" x2="50%" y2="100%">
      <stop offset="0%" stop-color="white" stop-opacity="0.38"/>
      <stop offset="42%" stop-color="white" stop-opacity="0.05"/>
      <stop offset="100%" stop-color="white" stop-opacity="0"/>
    </linearGradient>
    <clipPath id="cloverClip">
      <ellipse cx="100" cy="62" rx="34" ry="34"/>
      <ellipse cx="138" cy="100" rx="34" ry="34"/>
      <ellipse cx="100" cy="138" rx="34" ry="34"/>
      <ellipse cx="62" cy="100" rx="34" ry="34"/>
      <circle cx="100" cy="100" r="20"/>
    </clipPath>
    <linearGradient id="depth" x1="50%" y1="0%" x2="50%" y2="100%">
      <stop offset="0%" stop-color="white" stop-opacity="0.12"/>
      <stop offset="100%" stop-color="black" stop-opacity="0.1"/>
    </linearGradient>
    <filter id="shadow" x="-10%" y="-5%" width="120%" height="120%">
      <feDropShadow dx="0" dy="6" stdDeviation="10" flood-color="#0A2818" flood-opacity="0.25"/>
    </filter>
  </defs>

  <rect width="512" height="512" rx="112" fill="url(#bg)"/>
  <rect width="512" height="512" rx="112" fill="url(#gloss)"/>

  <g transform="translate(256,256) scale(2.2) translate(-100,-100)" filter="url(#shadow)">
    <!-- Unified flat clover body -->
    <rect x="20" y="20" width="160" height="160" fill="white" clip-path="url(#cloverClip)"/>
    <rect x="20" y="20" width="160" height="160" fill="url(#depth)" clip-path="url(#cloverClip)"/>

    <!-- Center circle -->
    <circle cx="100" cy="100" r="28" fill="#FBEC5D"/>
    <ellipse cx="96" cy="94" rx="8" ry="5" fill="white" opacity="0.3"/>
  </g>
</svg>
