<svg xmlns="http://www.w3.org/2000/svg" viewBox="0 0 512 512">
  <defs>
    <linearGradient id="bg" x1="0%" y1="0%" x2="100%" y2="100%">
      <stop offset="0%" stop-color="#B8FFDE"/>
      <stop offset="52%" stop-color="#98FBCB"/>
      <stop offset="100%" stop-color="#78E0B0"/>
    </linearGradient>
    <linearGradient id="bgGloss" x1="0%" y1="0%" x2="50%" y2="100%">
      <stop offset="0%" stop-color="white" stop-opacity="0.38"/>
      <stop offset="42%" stop-color="white" stop-opacity="0.05"/>
      <stop offset="100%" stop-color="white" stop-opacity="0"/>
    </linearGradient>

    <clipPath id="clover">
      <ellipse cx="100" cy="62" rx="34" ry="34"/>
      <ellipse cx="138" cy="100" rx="34" ry="34"/>
      <ellipse cx="100" cy="138" rx="34" ry="34"/>
      <ellipse cx="62" cy="100" rx="34" ry="34"/>
    </clipPath>

    <linearGradient id="petalGlass" x1="15%" y1="10%" x2="85%" y2="90%">
      <stop offset="0%" stop-color="#ffffff"/>
      <stop offset="35%" stop-color="#f6f6f6"/>
      <stop offset="65%" stop-color="#e8e8e8"/>
      <stop offset="100%" stop-color="#d8d8d8"/>
    </linearGradient>
    <radialGradient id="topShine" cx="40%" cy="18%" r="45%">
      <stop offset="0%" stop-color="white" stop-opacity="0.95"/>
      <stop offset="50%" stop-color="white" stop-opacity="0.25"/>
      <stop offset="100%" stop-color="white" stop-opacity="0"/>
    </radialGradient>
    <linearGradient id="bottomEdge" x1="50%" y1="50%" x2="50%" y2="100%">
      <stop offset="0%" stop-color="black" stop-opacity="0"/>
      <stop offset="60%" stop-color="black" stop-opacity="0.04"/>
      <stop offset="100%" stop-color="black" stop-opacity="0.18"/>
    </linearGradient>
    <radialGradient id="centerBase" cx="42%" cy="38%" r="52%">
      <stop offset="0%" stop-color="#FFF8B0"/>
      <stop offset="35%" stop-color="#FBEC5D"/>
      <stop offset="75%" stop-color="#F0D830"/>
      <stop offset="100%" stop-color="#D8B820"/>
    </radialGradient>
    <linearGradient id="centerGloss" x1="50%" y1="0%" x2="50%" y2="100%">
      <stop offset="0%" stop-color="white" stop-opacity="0.55"/>
      <stop offset="45%" stop-color="white" stop-opacity="0.08"/>
      <stop offset="100%" stop-color="black" stop-opacity="0.15"/>
    </linearGradient>
    <filter id="outerShadow" x="-15%" y="-8%" width="130%" height="130%">
      <feDropShadow dx="0" dy="6" stdDeviation="10" flood-color="#0A2818" flood-opacity="0.25"/>
    </filter>
    <filter id="centerShadow" x="-20%" y="-20%" width="140%" height="140%">
      <feDropShadow dx="0" dy="2" stdDeviation="3" flood-color="#8a7a20" flood-opacity="0.3"/>
    </filter>
  </defs>

  <rect width="512" height="512" rx="112" fill="url(#bg)"/>
  <rect width="512" height="512" rx="112" fill="url(#bgGloss)"/>

  <g transform="translate(256,256) scale(2.2) translate(-100,-100)" filter="url(#outerShadow)">
    <rect x="20" y="20" width="160" height="160" fill="url(#petalGlass)" clip-path="url(#clover)"/>
    <rect x="20" y="20" width="160" height="160" fill="url(#topShine)" clip-path="url(#clover)"/>
    <rect x="20" y="20" width="160" height="160" fill="url(#bottomEdge)" clip-path="url(#clover)"/>

    <ellipse cx="100" cy="62" rx="33.5" ry="33.5" fill="none" stroke="white" stroke-width="1.2" opacity="0.5"/>
    <ellipse cx="138" cy="100" rx="33.5" ry="33.5" fill="none" stroke="white" stroke-width="1.2" opacity="0.5"/>
    <ellipse cx="100" cy="138" rx="33.5" ry="33.5" fill="none" stroke="white" stroke-width="1.2" opacity="0.5"/>
    <ellipse cx="62" cy="100" rx="33.5" ry="33.5" fill="none" stroke="white" stroke-width="1.2" opacity="0.5"/>
    <ellipse cx="100" cy="62" rx="34" ry="34" fill="none" stroke="black" stroke-width="0.8" opacity="0.08"/>
    <ellipse cx="138" cy="100" rx="34" ry="34" fill="none" stroke="black" stroke-width="0.8" opacity="0.08"/>
    <ellipse cx="100" cy="138" rx="34" ry="34" fill="none" stroke="black" stroke-width="0.8" opacity="0.08"/>
    <ellipse cx="62" cy="100" rx="34" ry="34" fill="none" stroke="black" stroke-width="0.8" opacity="0.08"/>

    <g filter="url(#centerShadow)">
      <circle cx="100" cy="100" r="26" fill="url(#centerBase)"/>
      <circle cx="100" cy="100" r="26" fill="url(#centerGloss)"/>
      <ellipse cx="94" cy="91" rx="11" ry="7" fill="white" opacity="0.5"/>
      <ellipse cx="93" cy="89" rx="6" ry="3.5" fill="white" opacity="0.35"/>
      <circle cx="100" cy="100" r="25.5" fill="none" stroke="white" stroke-width="0.8" opacity="0.4"/>
      <circle cx="100" cy="100" r="26.5" fill="none" stroke="black" stroke-width="0.5" opacity="0.1"/>
    </g>
  </g>
</svg>
